<?xml version="1.0" encoding="UTF-8" standalone="no"?>
<svg
   xmlns:dc="http://purl.org/dc/elements/1.1/"
   xmlns:cc="http://creativecommons.org/ns#"
   xmlns:rdf="http://www.w3.org/1999/02/22-rdf-syntax-ns#"
   xmlns:svg="http://www.w3.org/2000/svg"
   xmlns="http://www.w3.org/2000/svg"
   xmlns:sodipodi="http://sodipodi.sourceforge.net/DTD/sodipodi-0.dtd"
   xmlns:inkscape="http://www.inkscape.org/namespaces/inkscape"
   width="28.961012mm"
   height="82.419128mm"
   viewBox="0 0 28.961012 82.419127"
   version="1.1"
   id="svg8"
   sodipodi:docname="treble clef try.svg"
   inkscape:version="0.92.5 (2060ec1f9f, 2020-04-08)">
  <sodipodi:namedview
     pagecolor="#ffffff"
     bordercolor="#666666"
     borderopacity="1"
     objecttolerance="10"
     gridtolerance="10"
     guidetolerance="10"
     inkscape:pageopacity="0"
     inkscape:pageshadow="2"
     inkscape:window-width="1920"
     inkscape:window-height="1029"
     id="namedview7"
     showgrid="false"
     fit-margin-top="0"
     fit-margin-left="0"
     fit-margin-right="0"
     fit-margin-bottom="0"
     inkscape:zoom="1.4252982"
     inkscape:cx="-39.686037"
     inkscape:cy="164.87391"
     inkscape:window-x="0"
     inkscape:window-y="597"
     inkscape:window-maximized="1"
     inkscape:current-layer="svg8" />
  <defs
     id="defs2" />
  <metadata
     id="metadata5">
    <rdf:RDF>
      <cc:Work
         rdf:about="">
        <dc:format>image/svg+xml</dc:format>
        <dc:type
           rdf:resource="http://purl.org/dc/dcmitype/StillImage" />
        <dc:title></dc:title>
      </cc:Work>
    </rdf:RDF>
  </metadata>
  <path
     style="color:#000000;font-style:normal;font-variant:normal;font-weight:normal;font-stretch:normal;font-size:medium;line-height:normal;font-family:sans-serif;font-variant-ligatures:normal;font-variant-position:normal;font-variant-caps:normal;font-variant-numeric:normal;font-variant-alternates:normal;font-feature-settings:normal;text-indent:0;text-align:start;text-decoration:none;text-decoration-line:none;text-decoration-style:solid;text-decoration-color:#000000;letter-spacing:normal;word-spacing:normal;text-transform:none;writing-mode:lr-tb;direction:ltr;text-orientation:mixed;dominant-baseline:auto;baseline-shift:baseline;text-anchor:start;white-space:normal;shape-padding:0;clip-rule:nonzero;display:inline;overflow:visible;visibility:visible;opacity:1;isolation:auto;mix-blend-mode:normal;color-interpolation:sRGB;color-interpolation-filters:linearRGB;solid-color:#000000;solid-opacity:1;vector-effect:none;fill:#000000;fill-opacity:1;fill-rule:nonzero;stroke:none;stroke-width:0.79374999;stroke-linecap:butt;stroke-linejoin:miter;stroke-miterlimit:4;stroke-dasharray:none;stroke-dashoffset:0;stroke-opacity:1;color-rendering:auto;image-rendering:auto;shape-rendering:auto;text-rendering:auto;enable-background:accumulate"
     d="M 20.072266,-0.01171875 C 19.70155,-0.02927684 19.327329,0.10312542 19.001953,0.359375 c -0.325376,0.25624958 -0.613835,0.62772756 -0.884765,1.125 -1.083723,1.9890898 -1.941827,6.0473454 -2.429688,13.365234 -0.257524,3.862847 -0.236305,9.356015 -0.322266,14.263672 -3.055618,3.480427 -6.4418858,6.796548 -9.1425778,10.353516 -2.501826,3.295049 -4.3634022,6.147673 -5.3789062,8.914062 -1.01550399,2.766389 -1.16851706,5.455129 -0.24609375,8.316407 0.92242155,2.861278 2.89379125,5.894088 5.46289065,8.203125 2.4802506,2.229181 5.5377131,3.754838 8.7539061,3.746093 -0.249083,6.674994 -0.769576,10.190849 -1.416015,11.761719 -0.329784,0.801386 -0.65184,1.081666 -0.951172,1.181641 -0.299332,0.09998 -0.684121,0.02912 -1.164063,-0.13086 C 9.3634233,80.81907 6.9375916,79.252503 4.5058594,77.671875 l -0.4335938,0.666016 c 2.4317322,1.580628 4.867791,3.175345 6.9609374,3.873047 0.52329,0.174426 1.08948,0.323418 1.666016,0.130859 0.576536,-0.19256 1.056652,-0.716832 1.433593,-1.632813 0.742258,-1.803713 1.230911,-5.341059 1.478516,-12.105468 3.193626,-0.267093 6.398482,-2.004552 8.875,-4.455078 2.594472,-2.567243 4.406794,-5.882402 4.486328,-9.082032 0.07953,-3.19963 -1.591994,-6.156446 -3.878906,-8.443359 -2.286912,-2.286914 -5.196441,-3.925005 -7.742188,-4.478516 -0.53751,-0.116867 -0.979206,-0.0045 -1.480468,-0.02734 0.0138,-4.615028 0.20726,-8.308778 0.28125,-12.689454 C 18.74694,26.448099 21.128781,23.31774 22.53125,19.699219 24.074015,15.718718 24.462257,11.874168 24.203125,8.65625 23.943993,5.4383323 23.052497,2.8506822 21.96875,1.3300781 21.426874,0.56977162 20.813697,0.02339743 20.072266,-0.01171875 Z M 20.035156,0.78125 c 0.340428,0.0161236 0.810809,0.3414676 1.28711,1.0097656 0.952608,1.3366039 1.839851,3.8252723 2.089843,6.9296875 0.249992,3.1044149 -0.12441,6.8298019 -1.621093,10.6914059 -1.231497,3.177394 -3.318552,5.982644 -5.609375,8.691407 0.08765,-4.496813 0.0593,-9.637553 0.296875,-13.201172 C 16.963437,7.6285466 17.869264,3.6000575 18.814453,1.8652344 19.050751,1.4315286 19.285292,1.145362 19.492188,0.98242188 19.699083,0.81948174 19.864942,0.77318822 20.035156,0.78125 Z m -4.701172,29.654297 c -0.06141,4.06225 -0.247114,7.431753 -0.259765,11.666015 -1.537233,0.07351 -2.94898,0.405231 -4.046875,1.13086 -1.6260069,1.074672 -2.7351314,2.639632 -3.2812502,4.117187 -1.0922447,2.95513 0.1378753,5.478629 1.2929687,7.84961 L 9.7519531,54.851562 C 8.5968601,52.480583 7.517183,50.26293 8.4921875,47.625 c 0.487506,-1.318975 1.5058894,-2.761043 2.9726565,-3.730469 0.979942,-0.64767 2.22923,-0.946203 3.601562,-1.017578 -0.02469,9.243666 -0.0066,18.328983 -0.226562,24.978516 C 11.869383,67.87273 8.9743253,66.451701 6.5898438,64.308594 4.1284934,62.096399 2.2243839,59.156442 1.3535156,56.455078 0.48264811,53.753722 0.62004885,51.290847 1.5878906,48.654297 2.5557324,46.017747 4.3706958,43.217282 6.8535156,39.947266 9.3066945,36.716287 12.43257,33.66575 15.333984,30.435547 Z m 0.529297,12.458984 c 0.448006,0.02294 0.834355,-0.07832 1.320313,0.02734 2.347882,0.51049 5.168327,2.080435 7.349609,4.261719 2.181282,2.181283 3.716862,4.953475 3.644531,7.863281 -0.07233,2.909808 -1.768439,6.083546 -4.25,8.539063 -2.345389,2.320774 -5.374725,3.938484 -8.292968,4.21289 0.218297,-6.66185 0.203852,-15.70368 0.228515,-24.904297 z"
     id="path826"
     inkscape:connector-curvature="0" />
</svg>
